<?xml version="1.0" encoding="UTF-8" standalone="no"?>
<svg width="120" height="40" viewBox="0 0 120 40" fill="none" xmlns="http://www.w3.org/2000/svg">
  <!-- Main Logo Shape -->
  <path d="M20 5C11.7157 5 5 11.7157 5 20C5 28.2843 11.7157 35 20 35C28.2843 35 35 28.2843 35 20C35 11.7157 28.2843 5 20 5Z" fill="#0095F6"/>

  <!-- Plane Icon -->
  <path d="M28 13L13 18L17 22L25 16L19 24L23 28L28 13Z" fill="white"/>

  <!-- Text -->
  <path d="M45 15H48V25H45V15ZM45 12H48V15H45V12Z" fill="#262626"/>
  <path d="M50 15H53V16.5C53.5 15.5 54.5 15 56 15C58.5 15 60 16.5 60 19V25H57V19.5C57 18.5 56.5 17.5 55 17.5C53.5 17.5 53 18.5 53 19.5V25H50V15Z" fill="#262626"/>
  <path d="M67 25L63 20V25H60V10H63V20L67 15H71L66 20L71 25H67Z" fill="#262626"/>
  <path d="M78 15H81V25H78V24C77.5 24.5 76.5 25 75 25C72 25 70 23 70 20C70 17 72 15 75 15C76.5 15 77.5 15.5 78 16V15ZM75.5 22.5C76.8807 22.5 78 21.3807 78 20C78 18.6193 76.8807 17.5 75.5 17.5C74.1193 17.5 73 18.6193 73 20C73 21.3807 74.1193 22.5 75.5 22.5Z" fill="#262626"/>
  <path d="M83 20C83 17 85 15 88 15C91 15 93 17 93 20C93 23 91 25 88 25C85 25 83 23 83 20ZM90 20C90 18.6193 89.1045 17.5 88 17.5C86.8955 17.5 86 18.6193 86 20C86 21.3807 86.8955 22.5 88 22.5C89.1045 22.5 90 21.3807 90 20Z" fill="#262626"/>
  <path d="M94 15H97V16C97.5 15.5 98.5 15 100 15C102.5 15 104 16.5 104 19V25H101V19.5C101 18.5 100.5 17.5 99 17.5C97.5 17.5 97 18.5 97 19.5V25H94V15Z" fill="#262626"/>
  <path d="M105 15H108V16C108.5 15.5 109.5 15 111 15C113.5 15 115 16.5 115 19V25H112V19.5C112 18.5 111.5 17.5 110 17.5C108.5 17.5 108 18.5 108 19.5V25H105V15Z" fill="#262626"/>
  <path d="M116 15H119V25H116V15ZM116 12H119V15H116V12Z" fill="#262626"/>
</svg>
